HIERARCHY
ROOT Hips
{
	OFFSET 0.00000 0.00000 0.00000
	CHANNELS 6 Xposition Yposition Zposition Yrotation Zrotation Xrotation 
	JOINT Lumbar
	{
		OFFSET 0 0 0
		CHANNELS 3 Zrotation Xrotation Yrotation
		JOINT Neck
		{
			OFFSET 0.00 0.2701 0.00
			CHANNELS 3 Zrotation Xrotation Yrotation
			End Site
			{
				OFFSET 0.00 0.1379 0.00
			}
		}
		JOINT RightShoulder
		{
			OFFSET 0.0119 0.2289 0.1181
			CHANNELS 3 Zrotation Xrotation Yrotation
			JOINT RightElbow
			{
				OFFSET 0.00 -0.1475 0.00
				CHANNELS 2 Zrotation Yrotation
				JOINT RightWrist
				{
					OFFSET 0.00 -0.1605 0.00
					CHANNELS 2 Zrotation Xrotation
					End Site
					{
						OFFSET 0.0040 -0.1068 0.0006
					}
				}
			}
		}
		JOINT LeftShoulder
		{
			OFFSET 0.0119 0.2289 -0.1181
			CHANNELS 3 Zrotation Xrotation Yrotation
			JOINT LeftElbow
			{
				OFFSET 0.00 -0.1475 0.00
				CHANNELS 2 Zrotation Yrotation
				JOINT LeftWrist
				{
					OFFSET 0.00 -0.1605 0.00
					CHANNELS 2 Zrotation Xrotation
					End Site
					{
						OFFSET 0.0040 -0.1068 -0.0006
					}
				}
			}
		}
	}
	JOINT RightHip
	{
		OFFSET 0.0316 -0.0424 0.0458
		CHANNELS 3 Zrotation Xrotation Yrotation
		JOINT RightKnee
		{
			OFFSET 0.00 -0.2438 0.00
			CHANNELS 1 Zrotation
			JOINT RightAnkle
			{
				OFFSET 0.00 -0.2449 0.00
				CHANNELS 3 Zrotation Xrotation Yrotation
				End Site
				{
					OFFSET 0.1237 -0.0542 0.0051
				}
			}
		}
	}
	JOINT LeftHip
	{
		OFFSET 0.0316 -0.0424 -0.0458
		CHANNELS 3 Zrotation Xrotation Yrotation
		JOINT LeftKnee
		{
			OFFSET 0.00 -0.2438 0.00
			CHANNELS 1 Zrotation
			JOINT LeftAnkle
			{
				OFFSET 0.00 -0.2449 0.00
				CHANNELS 3 Zrotation Xrotation Yrotation
				End Site
				{
					OFFSET 0.1237 -0.0542 -0.0051
				}
			}
		}
	}
}
MOTION
Frames: 25
Frame Time: 0.02
0.12854 -0.03245 -0.40137 897.7711 -33.47933 -0.36097 32.40192 14.28557 2.3406 -17.27838 7.11 -2.11993 -6.42787 -14.49374 -20.23858 18.79839 82.19392 -2.82055 0.75842 -53.82848 37.88211 -13.97411 100.63559 -88.03284 5.23727 -0.0522 29.62187 -0.20521 -10.37855 -33.53811 -5.63351 -2.08218 -3.20556 64.83945 8.13279 7.61521 -28.32693 -8.58771 1.01555 2.82696
0.11646 -0.03223 -0.39881 897.96946 -33.24846 -0.38082 32.28965 14.04334 2.20132 -17.40512 7.20791 -2.11993 -6.98381 -14.47817 -20.58166 18.84397 82.16269 -2.92641 1.06864 -53.93931 37.70506 -14.13908 100.1162 -87.58025 4.9533 -0.0099 29.22067 -0.5928 -9.83126 -35.40495 -5.74059 -2.06783 -3.20268 64.26522 8.37494 9.04217 -30.18264 -8.59673 0.83887 2.75115
0.10418 -0.03137 -0.39596 898.33036 -32.93525 -0.30107 32.15939 13.75507 1.97165 -17.52238 7.33513 -2.11993 -7.6095 -14.49851 -20.92069 18.89682 82.12536 -3.0674 1.39444 -53.9663 37.38177 -14.30388 99.47911 -87.8299 4.72367 -0.19209 29.01931 -1.08916 -9.1112 -37.65875 -5.89172 -2.05522 -3.20278 63.42805 8.66988 11.02106 -32.0821 -8.57473 0.61061 2.65153
0.09202 -0.0308 -0.39326 898.6176 -32.66461 -0.26401 32.04517 13.48371 1.7761 -17.64231 7.45091 -2.11993 -8.19587 -14.50032 -21.24122 18.95172 82.09154 -3.18714 1.71305 -54.03937 37.13754 -14.45315 98.92092 -87.72757 4.46524 -0.26274 28.7752 -1.54155 -8.48521 -39.77417 -6.03725 -2.0399 -3.20133 62.69404 8.9154 12.68258 -33.9179 -8.56209 0.41487 2.5663
0.07971 -0.03023 -0.39044 898.90296 -32.37047 -0.2369 31.89679 13.22617 1.61234 -17.76886 7.56089 -2.11993 -8.8177 -14.51099 -21.6495 18.98474 82.05456 -3.33064 2.03614 -54.08246 36.8438 -14.66861 98.25873 -87.70957 4.21323 -0.35935 28.32785 -1.97866 -7.79795 -41.74502 -6.12569 -2.03072 -3.19994 62.02509 9.26931 14.62316 -35.9701 -8.57264 0.17971 2.46559
0.06768 -0.0295 -0.38782 899.23127 -32.10584 -0.16704 31.81517 12.93165 1.35879 -17.87929 7.68815 -2.11993 -9.38036 -14.5118 -21.87481 19.06439 82.02271 -3.43203 2.3516 -54.16392 36.61708 -14.74775 97.78249 -87.70474 3.96629 -0.46053 28.35015 -2.46605 -7.19479 -44.09539 -6.33914 -2.01108 -3.19985 61.15846 9.4117 16.11543 -37.56865 -8.52701 0.01431 2.39146
0.05647 -0.02848 -0.38577 899.63742 -31.95008 0.01216 31.92815 12.5274 0.89452 -17.94963 7.86759 -2.11993 -9.77003 -14.47808 -21.57714 19.27584 82.00673 -3.41368 2.64734 -54.40532 36.61032 -14.42917 97.86726 -87.5501 3.70315 -0.5211 29.63669 -3.12179 -6.87805 -47.4973 -6.92279 -1.94743 -3.19715 59.82552 8.93123 16.22048 -37.91762 -8.32497 0.0607 2.39869
0.04556 -0.02731 -0.38393 900.08107 -31.82606 0.22809 32.10796 12.09137 0.34049 -18.00362 8.06109 -2.11993 -10.09585 -14.43313 -21.09843 19.53288 81.9961 -3.3508 2.93318 -54.68177 36.67554 -13.97699 98.13987 -87.39456 3.44757 -0.58024 31.3864 -3.81471 -6.65068 -51.24613 -7.62391 -1.87569 -3.19654 58.30084 8.24053 15.85812 -37.80148 -8.0685 0.17816 2.43319
0.03453 -0.0262 -0.38202 900.50891 -31.68284 0.41697 32.25365 11.68234 -0.18306 -18.06392 8.24037 -2.11993 -10.44585 -14.39225 -20.71437 19.76607 81.98284 -3.30464 3.21988 -54.92024 36.708 -13.59972 98.31351 -87.25661 3.20108 -0.64097 32.91339 -4.45184 -6.37213 -54.77453 -8.24777 -1.81787 -3.19881 56.85444 7.66241 15.71907 -37.88511 -7.84222 0.259 2.45384
0.02342 -0.02511 -0.38001 900.939 -31.55602 0.653 32.41488 11.2182 -0.66803 -18.1291 8.45376 -2.11993 -10.8194 -14.35641 -20.27801 20.01339 81.97013 -3.27398 3.52334 -55.24931 36.73617 -13.16283 98.53906 -87.07025 2.90395 -0.7053 34.49811 -5.25201 -6.126 -58.59263 -8.97418 -1.7183 -3.18572 55.43527 7.01376 15.55299 -38.02047 -7.59205 0.35605 2.47974
0.01257 -0.02395 -0.37825 901.36896 -31.40472 0.79833 32.55939 10.86247 -1.25124 -18.17972 8.59903 -2.11993 -11.12702 -14.30764 -19.9076 20.2412 81.95771 -3.20071 3.78832 -55.39856 36.79157 -12.81806 98.70446 -86.97482 2.71277 -0.75892 36.07104 -5.72629 -5.8436 -61.87072 -9.51404 -1.70192 -3.20419 53.91842 6.46202 15.32539 -37.93613 -7.37893 0.43714 2.50158
0.00234 -0.02263 -0.37714 901.80763 -31.17002 0.68326 32.6455 10.80946 -2.10247 -18.19965 8.55265 -2.11993 -11.27458 -14.22003 -19.76374 20.41088 81.94422 -3.01446 3.95755 -55.0478 36.91149 -12.76318 98.64247 -87.13597 2.81805 -0.78302 37.48871 -5.23569 -5.37146 -63.68762 -9.51239 -1.93289 -3.31707 52.17104 6.22337 15.03586 -37.36401 -7.28299 0.45515 2.50496
-0.00763 -0.02127 -0.37627 902.24063 -30.91183 0.47546 32.71193 10.86777 -3.04524 -18.20455 8.43699 -2.11993 -11.35645 -14.1208 -19.69247 20.55801 81.93102 -2.78792 4.08662 -54.51448 37.05591 -12.80509 98.51696 -87.38421 3.02831 -0.79539 38.87947 -4.42496 -4.872 -64.92444 -9.31851 -2.24496 -3.4602 50.33518 6.09022 14.69872 -36.58565 -7.22607 0.45527 2.50356
-0.01768 -0.01994 -0.37529 902.6635 -30.66973 0.3101 32.78457 10.87817 -3.93369 -18.21268 8.3531 -2.11993 -11.46381 -14.0305 -19.5879 20.71092 81.91801 -2.58362 4.2289 -54.06164 37.18513 -12.80084 98.43109 -87.58592 3.18658 -0.8122 40.28745 -3.79788 -4.43188 -66.35109 -9.21052 -2.50956 -3.5843 48.54571 5.91255 14.38509 -35.89791 -7.15046 0.46489 2.50484
-0.02786 -0.01853 -0.37429 903.14157 -30.40459 0.14431 32.87049 10.87587 -4.88012 -18.2352 8.26896 -2.11993 -11.58733 -13.92415 -19.47838 20.88435 81.90357 -2.36085 4.39281 -53.61988 37.33338 -12.80114 98.30599 -87.81791 3.36354 -0.83273 41.68989 -3.01419 -3.8017 -68.10668 -9.11185 -2.81853 -3.73063 46.72157 5.71361 14.0486 -35.20667 -7.07703 0.47101 2.50484
-0.03772 -0.01729 -0.3734 903.50263 -30.18301 -0.04244 32.92391 10.92718 -5.725 -18.22467 8.16811 -2.11993 -11.66251 -13.84899 -19.39869 21.00902 81.89242 -2.16798 4.50143 -53.11201 37.44759 -12.81666 98.24533 -88.0068 3.52599 -0.84288 43.09237 -2.4762 -3.55344 -69.02846 -8.94784 -3.05464 -3.83799 44.95331 5.58616 13.75316 -34.48032 -7.00899 0.47943 2.5061
-0.04683 -0.01646 -0.3727 903.54319 -30.07429 -0.27015 32.88634 11.09713 -6.27806 -18.12459 8.043 -2.11993 -11.61981 -13.85936 -19.38571 21.0048 81.88768 -2.06422 4.47423 -52.46021 37.45542 -12.85128 98.37529 -88.06024 3.62647 -0.82735 44.49037 -2.72906 -4.42089 -67.84234 -8.6388 -3.06779 -3.82881 43.34411 5.63653 13.59522 -33.70551 -6.94717 0.49687 2.51127
-0.05564 -0.01581 -0.37209 903.46601 -30.01265 -0.51475 32.81769 11.31775 -6.72328 -17.99237 7.90248 -2.11993 -11.5312 -13.90213 -19.40104 20.95202 81.88666 -1.99284 4.3915 -51.74959 37.42877 -12.89827 98.57184 -88.0667 3.70819 -0.80299 45.88874 -3.23389 -5.66318 -65.82663 -8.2721 -3.00508 -3.77958 41.79859 5.75521 13.4803 -32.90549 -6.88961 0.51717 2.51787
-0.06458 -0.01511 -0.37146 903.44137 -29.93779 -0.74819 32.76669 11.51682 -7.2102 -17.87605 7.76569 -2.11993 -11.46413 -13.93246 -19.4026 20.92109 81.88569 -1.90891 4.32966 -51.06917 37.42199 -12.93997 98.73888 -88.09094 3.79572 -0.78098 47.29229 -3.60059 -6.69752 -64.15302 -7.93896 -2.97857 -3.74977 40.23569 5.83941 13.3396 -32.12031 -6.82975 0.537 2.52422
-0.07355 -0.01428 -0.37078 903.41953 -29.82711 -1.00005 32.69949 11.71362 -7.73115 -17.75315 7.64028 -2.11993 -11.39159 -13.95305 -19.40926 20.89032 81.87759 -1.81408 4.28482 -50.36599 37.39921 -12.98415 98.90079 -88.13175 3.89753 -0.76043 48.67392 -4.05506 -7.88912 -62.60217 -7.56857 -2.94812 -3.71614 38.61979 5.94111 13.22274 -31.31218 -6.7725 0.55293 2.5288
-0.08238 -0.01376 -0.37021 903.36538 -29.80312 -1.21572 32.65974 11.92557 -8.1545 -17.63725 7.48846 -2.11993 -11.32077 -14.00142 -19.41254 20.84796 81.88496 -1.7506 4.19184 -49.70086 37.40019 -13.0241 99.0898 -88.12769 3.96486 -0.74137 50.09999 -4.39174 -8.84329 -60.61196 -7.264 -2.90618 -3.68023 37.13178 6.02192 13.06776 -30.55008 -6.71063 0.57765 2.53737
-0.09087 -0.01404 -0.36985 903.23961 -30.00139 -1.33202 32.69583 12.16782 -8.33336 -17.54226 7.26744 -2.11993 -11.26369 -14.12161 -19.38749 20.78603 81.93635 -1.76229 3.98057 -49.13677 37.48448 -13.05627 99.33899 -87.99356 3.93147 -0.66922 51.65898 -4.33475 -9.04399 -57.56608 -7.16137 -2.85631 -3.6506 35.97169 6.02269 12.79269 -29.91126 -6.63269 0.62768 2.55721
-0.09924 -0.01463 -0.3696 903.08823 -30.28587 -1.4097 32.76188 12.42276 -8.41763 -17.45663 7.02084 -2.11993 -11.21104 -14.26809 -19.36027 20.71428 82.00273 -1.80518 3.72305 -48.61735 37.59227 -13.08256 99.61292 -87.8183 3.86528 -0.60716 53.25896 -4.15381 -8.99456 -54.12016 -7.12703 -2.79625 -3.61945 34.94018 6.00086 12.47913 -29.32326 -6.55033 0.68609 2.58084
-0.10769 -0.01509 -0.36932 902.95503 -30.53544 -1.50185 32.81954 12.67089 -8.54544 -17.37095 6.78622 -2.11993 -11.15776 -14.40068 -19.34119 20.6466 82.06085 -1.83641 3.48585 -48.09044 37.6828 -13.10577 99.87507 -87.67358 3.82031 -0.58311 54.83586 -4.03511 -9.06315 -50.88735 -7.05809 -2.73687 -3.5869 33.85685 5.99231 12.186 -28.7188 -6.47112 0.73972 2.60239
-0.11601 -0.01548 -0.36894 902.78714 -30.77101 -1.6088 32.85501 12.92562 -8.66667 -17.26652 6.5491 -2.11993 -11.0956 -14.54283 -19.29167 20.57828 82.12535 -1.85848 3.24851 -47.50724 37.79891 -13.15138 100.14277 -87.47912 3.7485 -0.39068 56.43926 -3.89829 -9.12445 -47.4843 -7.00107 -2.69104 -3.56149 32.74858 5.97262 11.8809 -28.08255 -6.3867 0.79797 2.62572
